<svg width="163" height="163" viewBox="0 0 163 163" fill="none" xmlns="http://www.w3.org/2000/svg">
<rect width="163" height="163" fill="#AABEC0"/>
<path d="M129.042 61.125C129.042 70.973 126.121 80.0059 121.095 87.5446C113.76 98.4113 102.147 106.086 88.6313 108.055C86.3221 108.463 83.945 108.667 81.5 108.667C79.055 108.667 76.678 108.463 74.3688 108.055C60.8534 106.086 49.2396 98.4113 41.9046 87.5446C36.8788 80.0059 33.9584 70.973 33.9584 61.125C33.9584 34.8413 55.2163 13.5834 81.5 13.5834C107.784 13.5834 129.042 34.8413 129.042 61.125Z" stroke="black" stroke-width="10.1875" stroke-linecap="round" stroke-linejoin="round"/>
<path d="M144.323 125.442L133.117 128.091C130.604 128.702 128.634 130.604 128.091 133.117L125.714 143.1C124.423 148.534 117.496 150.164 113.896 145.885L81.5 108.667L49.1035 145.953C45.5039 150.232 38.5764 148.602 37.286 143.168L34.9089 133.185C34.2976 130.672 32.3281 128.702 29.8831 128.159L18.6768 125.51C13.5151 124.288 11.6814 117.835 15.4168 114.1L41.9043 87.6125C49.2393 98.4792 60.8531 106.154 74.3687 108.123C76.6779 108.531 79.055 108.735 81.5 108.735C83.945 108.735 86.3221 108.531 88.6313 108.123C102.147 106.154 113.76 98.4792 121.095 87.6125L147.583 114.1C151.318 117.768 149.485 124.22 144.323 125.442Z" stroke="black" stroke-width="10.1875" stroke-linecap="round" stroke-linejoin="round"/>
<path d="M85.4391 40.6141L89.4462 48.6282C89.9895 49.7149 91.4158 50.8016 92.7062 51.0054L99.9733 52.2278C104.592 52.9749 105.678 56.3708 102.35 59.6987L96.7133 65.3357C95.7624 66.2865 95.2191 68.1204 95.5587 69.4787L97.1887 76.4741C98.4791 81.9754 95.5587 84.1487 90.6687 81.2283L83.877 77.2212C82.6545 76.4741 80.617 76.4741 79.3945 77.2212L72.6029 81.2283C67.7126 84.0808 64.7922 81.9754 66.0827 76.4741L67.7127 69.4787C67.9845 68.1883 67.5089 66.2865 66.5581 65.3357L60.921 59.6987C57.5931 56.3708 58.6797 53.0428 63.2981 52.2278L70.5654 51.0054C71.7879 50.8016 73.2141 49.7149 73.7574 48.6282L77.7645 40.6141C79.7341 36.2675 83.2658 36.2675 85.4391 40.6141Z" stroke="black" stroke-width="10.1875" stroke-linecap="round" stroke-linejoin="round"/>
</svg>
