<svg width="186" height="186" viewBox="0 0 186 186" fill="none" xmlns="http://www.w3.org/2000/svg">
<rect width="186" height="186" fill="#AABEC0"/>
<path d="M31.0387 124.736C25.1489 130.895 21.3287 138.738 20.1112 147.173C19.3695 151.392 19.0966 155.681 19.2975 159.96V166.703H28.5975C32.0281 166.692 35.4512 166.381 38.8275 165.773C47.2756 164.601 55.1327 160.774 61.2637 154.845C64.8605 150.801 66.7087 145.497 66.4037 140.094C66.0986 134.691 63.6653 129.628 59.6362 126.015C55.9835 122.105 50.9441 119.781 45.5983 119.542C40.2525 119.303 35.0259 121.167 31.0387 124.736ZM51.2662 144.848C47.2418 148.66 42.1148 151.101 36.6187 151.823H34.0612V149.265C34.7827 143.769 37.2242 138.642 41.0362 134.618C41.8231 133.98 42.8143 133.65 43.8262 133.688C44.8612 133.729 45.8776 133.977 46.8157 134.416C47.7539 134.855 48.5951 135.477 49.29 136.245C50.6853 137.13 51.6753 138.53 52.0453 140.14C52.4152 141.751 52.1353 143.442 51.2662 144.848ZM170.306 26.0401C170.247 23.3147 169.138 20.7174 167.21 18.7898C165.283 16.8622 162.685 15.7531 159.96 15.6938C146.351 14.5826 132.657 16.2229 119.695 20.517C106.733 24.811 94.768 31.6708 84.5137 40.6876L65.5649 62.7751L37.665 56.9626C35.762 56.548 33.7855 56.6181 31.9167 57.1666C30.048 57.715 28.347 58.7241 26.97 60.1013L19.065 68.0063C17.8585 69.2365 16.9405 70.7195 16.3776 72.3481C15.8146 73.9766 15.6207 75.7099 15.81 77.4226C15.9813 79.1569 16.5405 80.8305 17.446 82.3195C18.3515 83.8086 19.5802 85.075 21.0412 86.0251L44.9887 101.37L46.5 102.3L83.7 140.081L84.63 141.011L99.975 164.959C100.925 166.42 102.191 167.649 103.68 168.554C105.17 169.46 106.843 170.019 108.577 170.19H109.856C112.906 170.177 115.828 168.966 117.994 166.819L125.899 158.914C127.276 157.537 128.285 155.836 128.833 153.967C129.382 152.098 129.452 150.122 129.037 148.219L123.225 120.435L144.615 102.068C153.806 91.7847 160.821 79.7476 165.236 66.6814C169.652 53.6153 171.376 39.7905 170.306 26.0401ZM36.1537 71.4938L51.4987 74.7488L44.0587 83.4676L32.4337 75.6788L36.1537 71.4938ZM110.321 154.031L102.532 142.406L111.251 134.966L114.506 150.311L110.321 154.031ZM134.85 91.3726L92.07 127.875L58.125 93.9301L94.6275 51.1501C111.54 36.5357 133.454 29.0366 155.775 30.2251C156.915 52.5389 149.422 74.4353 134.85 91.3726Z" fill="black"/>
<path d="M129.386 77.0738C130.656 75.7399 131.647 74.1658 132.301 72.4438C132.955 70.7218 133.258 68.8866 133.193 67.0459C133.128 65.2051 132.696 63.3958 131.923 61.7242C131.149 60.0526 130.05 58.5523 128.689 57.3113C127.487 55.8865 126.004 54.7263 124.331 53.9038C122.659 53.0813 120.834 52.6144 118.972 52.5325C117.11 52.4507 115.252 52.7557 113.514 53.4282C111.775 54.1008 110.196 55.1263 108.874 56.4401C107.552 57.7539 106.517 59.3274 105.834 61.0614C105.15 62.7953 104.834 64.6521 104.905 66.5144C104.975 68.3768 105.431 70.2043 106.243 71.8817C107.055 73.5591 108.206 75.0499 109.624 76.26C110.865 77.6153 112.363 78.7118 114.029 79.4866C115.696 80.2614 117.499 80.6992 119.336 80.7748C121.172 80.8505 123.006 80.5624 124.73 79.9273C126.455 79.2921 128.037 78.3224 129.386 77.0738Z" fill="black"/>
</svg>
