<svg width="163" height="163" viewBox="0 0 163 163" fill="none" xmlns="http://www.w3.org/2000/svg">
<g clip-path="url(#clip0_6_16)">
<path d="M131.643 89.0654C136.426 85.7237 119.869 80.5729 119.869 37.3429C119.869 15.5008 104.369 0 82.5269 0C82.3413 0 80.6586 0 80.4733 0C58.6304 0 43.1307 15.5008 43.1307 37.3429C43.1307 80.5726 26.5746 85.7237 31.3568 89.0654C32.41 89.8007 43.082 90.2769 59.4699 90.4957C65.3046 94.3623 73.0509 96.718 81.5508 96.718C90.0521 96.718 97.7998 94.3613 103.634 90.494C119.972 90.2745 130.592 89.7983 131.643 89.0654Z" fill="black"/>
<path d="M61.2052 108.848C60.9789 105.958 58.567 103.682 55.6187 103.682C55.1466 103.682 54.6903 103.747 54.2523 103.857C54.1725 103.874 54.0906 103.886 54.0122 103.907C49.7245 105.097 44.2392 106.755 37.3347 109.245C16.8316 116.639 10.9211 124.178 10.9211 129.32C10.9211 134.455 10.9211 163 10.9211 163H75.189C70.7945 151.55 64.3692 123.172 61.4294 109.693C61.3658 109.4 61.2904 109.12 61.2052 108.848Z" fill="black"/>
<path d="M125.665 109.245C118.76 106.755 113.275 105.097 108.987 103.907C108.909 103.886 108.827 103.873 108.748 103.857C108.31 103.747 107.853 103.682 107.381 103.682C104.433 103.682 102.021 105.958 101.795 108.848C101.71 109.12 101.633 109.4 101.57 109.692C98.6307 123.171 92.2052 151.549 87.8103 162.999H152.079C152.079 162.999 152.079 134.454 152.079 129.319C152.079 124.178 146.168 116.639 125.665 109.245Z" fill="black"/>
</g>
<defs>
<clipPath id="clip0_6_16">
<rect width="163" height="163" fill="white"/>
</clipPath>
</defs>
</svg>
